<?xml version="1.0" encoding="utf-8"?>
<!-- Generator: Adobe Illustrator 27.5.0, SVG Export Plug-In . SVG Version: 6.00 Build 0)  -->
<svg version="1.1" xmlns="http://www.w3.org/2000/svg" xmlns:xlink="http://www.w3.org/1999/xlink" x="0px" y="0px"
	 viewBox="0 0 800 800" style="enable-background:new 0 0 800 800;" xml:space="preserve">
<g id="background">
	<rect style="fill:#FFFFFF;" width="800" height="800"/>
</g>
<g id="objects">
	<g>
		<g>
			
				<rect x="106.306" y="531.815" style="fill:#A37231;stroke:#302D2D;stroke-width:2;stroke-linecap:round;stroke-linejoin:round;stroke-miterlimit:10;" width="257.178" height="177.779"/>
			
				<rect x="118.361" y="545.816" style="fill:#6DAF75;stroke:#302D2D;stroke-width:2;stroke-linecap:round;stroke-linejoin:round;stroke-miterlimit:10;" width="233.066" height="149.777"/>
		</g>
		
			<rect x="581.923" y="339.748" transform="matrix(0.9686 -0.2486 0.2486 0.9686 -80.0883 169.8555)" style="fill:#F15A24;stroke:#302D2D;stroke-width:2;stroke-linecap:round;stroke-linejoin:round;stroke-miterlimit:10;" width="101.334" height="124.666"/>
		<g>
			<path style="fill:#F5F5F5;stroke:#302D2D;stroke-width:2;stroke-linecap:round;stroke-linejoin:round;stroke-miterlimit:10;" d="
				M204.024,157.262c0-22.455,18.204-40.659,40.659-40.659s40.659,18.204,40.659,40.659s-18.204,40.66-40.659,40.66
				S204.024,179.717,204.024,157.262z"/>
			
				<ellipse transform="matrix(0.1518 -0.9884 0.9884 0.1518 52.1035 375.2393)" style="fill:#F5F5F5;stroke:#302D2D;stroke-width:2;stroke-linecap:round;stroke-linejoin:round;stroke-miterlimit:10;" cx="244.684" cy="157.262" rx="25.193" ry="25.193"/>
			<path style="fill:#A37231;stroke:#302D2D;stroke-width:2;stroke-linecap:round;stroke-linejoin:round;stroke-miterlimit:10;" d="
				M223.653,157.262c0-11.615,9.416-21.03,21.03-21.03c11.615,0,21.031,9.415,21.031,21.03c0,11.615-9.416,21.031-21.031,21.031
				C233.069,178.293,223.653,168.877,223.653,157.262z"/>
			<path style="fill:#F5F5F5;" d="M244.684,150.592c0-4.064,3.296-7.36,7.361-7.36c4.065,0,7.36,3.296,7.36,7.36
				c0,4.065-3.296,7.361-7.36,7.361C247.979,157.953,244.684,154.657,244.684,150.592z"/>
			<path style="fill:#F5F5F5;" d="M238.375,143.231c0-1.548,1.255-2.804,2.804-2.804s2.804,1.256,2.804,2.804
				c0,1.549-1.255,2.804-2.804,2.804S238.375,144.78,238.375,143.231z"/>
			
				<rect x="269.877" y="154.896" style="fill:#F5F5F5;stroke:#302D2D;stroke-width:2;stroke-linecap:round;stroke-linejoin:round;stroke-miterlimit:10;" width="11.845" height="4.731"/>
		</g>
		<path style="fill:#04C4D5;stroke:#302D2D;stroke-width:2;stroke-linecap:round;stroke-linejoin:round;stroke-miterlimit:10;" d="
			M325.668,519.684"/>
		<path style="fill:none;stroke:#302D2D;stroke-width:2;stroke-linecap:round;stroke-linejoin:round;stroke-miterlimit:10;" d="
			M316.132,347.222v-24.211c0-4.234,3.433-7.667,7.667-7.667c4.234,0,7.667,3.433,7.667,7.667v65.666
			c0,4.234,3.433,7.667,7.667,7.667s7.667-3.433,7.667-7.667v-0.017c0-4.234,3.433-7.667,7.667-7.667s7.667,3.433,7.667,7.667
			v51.686"/>
		<g id="XMLID_49_">
			<g>
				<rect x="520.798" y="645.663" style="fill:#F15A24;" width="9.14" height="65.367"/>
				<polygon style="fill:#302D2D;" points="529.938,643.153 529.938,645.663 520.798,645.663 520.798,635.887 522.361,635.887 
					528.374,635.887 529.938,635.887 				"/>
				<polygon style="fill:#697271;" points="529.938,711.03 525.376,721.62 520.798,711.03 				"/>
				<rect x="522.361" y="626.812" style="fill:#697271;" width="6.013" height="9.075"/>
			</g>
			<g>
				
					<polyline style="fill:none;stroke:#302D2D;stroke-width:1.8;stroke-linecap:round;stroke-linejoin:round;stroke-miterlimit:10;" points="
					528.374,635.887 529.938,635.887 529.938,643.153 529.938,645.663 529.938,711.03 				"/>
				
					<polyline style="fill:none;stroke:#302D2D;stroke-width:1.8;stroke-linecap:round;stroke-linejoin:round;stroke-miterlimit:10;" points="
					520.798,711.03 520.798,645.663 520.798,635.887 522.361,635.887 				"/>
				
					<polygon style="fill:none;stroke:#302D2D;stroke-width:1.8;stroke-linecap:round;stroke-linejoin:round;stroke-miterlimit:10;" points="
					529.938,711.03 525.376,721.62 520.798,711.03 				"/>
				
					<line style="fill:none;stroke:#302D2D;stroke-width:1.8;stroke-linecap:round;stroke-linejoin:round;stroke-miterlimit:10;" x1="520.798" y1="645.663" x2="529.938" y2="645.663"/>
				
					<rect x="522.361" y="626.812" style="fill:none;stroke:#302D2D;stroke-width:1.8;stroke-linecap:round;stroke-linejoin:round;stroke-miterlimit:10;" width="6.013" height="9.075"/>
				<path style="fill:none;stroke:#302D2D;stroke-width:1.8;stroke-linecap:round;stroke-linejoin:round;stroke-miterlimit:10;" d="
					M529.938,643.153c0,0,8.18-5.148,6.81,4.22c-1.352,9.369-8.016,20.497-3.323,32.847"/>
			</g>
		</g>
		<g id="XMLID_48_">
			<g>
				<polygon style="fill:#FBB03B;" points="498.304,635.568 498.304,729.889 428.423,729.889 428.423,635.568 446.541,635.568 
					446.541,646.485 436.504,646.485 436.504,718.973 490.223,718.973 490.223,646.485 480.185,646.485 480.185,635.568 				"/>
				<path style="fill:#04C4D5;" d="M490.223,646.485v72.487h-53.719v-72.487h10.037v1.743h16.815h16.83v-1.743H490.223z
					 M450.517,708.072v-7.951h-7.951v7.951H450.517z M450.517,693.816v-7.951h-7.951v7.951H450.517z M450.517,679.56v-7.951h-7.951
					v7.951H450.517z M450.517,665.304v-7.951h-7.951v7.951H450.517z"/>
				<polygon style="fill:#697271;" points="480.185,646.485 480.185,648.229 463.355,648.229 446.541,648.229 446.541,646.485 				
					"/>
				<rect x="446.541" y="635.568" style="fill:#697271;" width="33.644" height="10.917"/>
				<path style="fill:#697271;" d="M480.185,630.925v4.644h-33.645v-4.644h9.612c0,0-0.961-12.366,7.202-12.366
					c8.179,0,7.218,12.366,7.218,12.366H480.185z M465.44,624.701c0-1.156-0.929-2.085-2.085-2.085
					c-1.141,0-2.069,0.929-2.069,2.085c0,1.141,0.929,2.086,2.069,2.086C464.512,626.787,465.44,625.842,465.44,624.701z"/>
				<path style="fill:#302D2D;" d="M463.355,622.616c1.156,0,2.085,0.929,2.085,2.085c0,1.141-0.929,2.086-2.085,2.086
					c-1.141,0-2.069-0.945-2.069-2.086C461.286,623.545,462.215,622.616,463.355,622.616z"/>
				<rect x="442.565" y="700.121" style="fill:#F5F5F5;" width="7.951" height="7.951"/>
				<rect x="442.565" y="685.865" style="fill:#F5F5F5;" width="7.951" height="7.951"/>
				<rect x="442.565" y="671.608" style="fill:#F5F5F5;" width="7.951" height="7.951"/>
				<rect x="442.565" y="657.352" style="fill:#F15A24;" width="7.951" height="7.951"/>
			</g>
			<g>
				
					<polyline style="fill:none;stroke:#302D2D;stroke-width:1.8;stroke-linecap:round;stroke-linejoin:round;stroke-miterlimit:10;" points="
					480.185,635.568 498.304,635.568 498.304,729.889 428.423,729.889 428.423,635.568 446.541,635.568 				"/>
				
					<polyline style="fill:none;stroke:#302D2D;stroke-width:1.8;stroke-linecap:round;stroke-linejoin:round;stroke-miterlimit:10;" points="
					480.185,646.485 490.223,646.485 490.223,718.973 436.504,718.973 436.504,646.485 446.541,646.485 				"/>
				<path style="fill:none;stroke:#302D2D;stroke-width:1.8;stroke-linecap:round;stroke-linejoin:round;stroke-miterlimit:10;" d="
					M480.185,635.568v-4.644h-9.612c0,0,0.961-12.366-7.218-12.366c-8.163,0-7.202,12.366-7.202,12.366h-9.612v4.644v10.917v1.743
					h16.815h16.83v-1.743V635.568z"/>
				
					<rect x="442.565" y="657.352" style="fill:none;stroke:#302D2D;stroke-width:1.8;stroke-linecap:round;stroke-linejoin:round;stroke-miterlimit:10;" width="7.951" height="7.951"/>
				
					<rect x="442.565" y="671.608" style="fill:none;stroke:#302D2D;stroke-width:1.8;stroke-linecap:round;stroke-linejoin:round;stroke-miterlimit:10;" width="7.951" height="7.951"/>
				
					<rect x="442.565" y="685.865" style="fill:none;stroke:#302D2D;stroke-width:1.8;stroke-linecap:round;stroke-linejoin:round;stroke-miterlimit:10;" width="7.951" height="7.951"/>
				
					<rect x="442.565" y="700.121" style="fill:none;stroke:#302D2D;stroke-width:1.8;stroke-linecap:round;stroke-linejoin:round;stroke-miterlimit:10;" width="7.951" height="7.951"/>
				
					<line style="fill:none;stroke:#302D2D;stroke-width:1.8;stroke-linecap:round;stroke-linejoin:round;stroke-miterlimit:10;" x1="457.44" y1="661.328" x2="481.473" y2="661.328"/>
				
					<line style="fill:none;stroke:#302D2D;stroke-width:1.8;stroke-linecap:round;stroke-linejoin:round;stroke-miterlimit:10;" x1="457.44" y1="675.584" x2="481.473" y2="675.584"/>
				
					<line style="fill:none;stroke:#302D2D;stroke-width:1.8;stroke-linecap:round;stroke-linejoin:round;stroke-miterlimit:10;" x1="457.44" y1="689.841" x2="481.473" y2="689.841"/>
				
					<line style="fill:none;stroke:#302D2D;stroke-width:1.8;stroke-linecap:round;stroke-linejoin:round;stroke-miterlimit:10;" x1="457.44" y1="704.097" x2="481.473" y2="704.097"/>
			</g>
		</g>
		<g>
			<g id="XMLID_1_">
				<g>
					<path style="fill:#F5F5F5;" d="M595.717,242.586v17.976c0,9.645-7.892,17.537-17.536,17.537H477.588H432.72H332.137
						c-9.645,0-17.537-7.892-17.537-17.537v-17.976h280.995H595.717z M461.735,256.449c0-3.63-2.946-6.576-6.577-6.576
						c-3.639,0-6.576,2.946-6.576,6.576c0,3.639,2.938,6.577,6.576,6.577C458.789,263.026,461.735,260.088,461.735,256.449z"/>
					<path style="fill:#474747;" d="M595.717,87.647v154.939h-0.122H314.6V87.647c0-9.645,7.892-17.537,17.537-17.537h246.044
						C587.825,70.111,595.717,78.002,595.717,87.647z M579.741,227.847V88.524H330.576v139.322H579.741z"/>
					<rect x="330.576" y="88.524" style="fill:#04C4D5;" width="249.165" height="139.322"/>
					<path style="fill:#F5F5F5;" d="M503.017,304.229h-47.858h-47.867c19.291-7.892,25.429-26.13,25.429-26.13h44.868
						C477.588,278.099,483.727,296.337,503.017,304.229z"/>
					<path style="fill:#F15A24;" d="M455.158,249.873c3.631,0,6.577,2.946,6.577,6.576c0,3.639-2.946,6.577-6.577,6.577
						c-3.639,0-6.576-2.938-6.576-6.577C448.582,252.819,451.52,249.873,455.158,249.873z"/>
				</g>
				<g>
					<path style="fill:none;stroke:#302D2D;stroke-width:2;stroke-linecap:round;stroke-linejoin:round;stroke-miterlimit:10;" d="
						M595.717,242.586v17.976c0,9.645-7.892,17.537-17.536,17.537H477.588H432.72H332.137c-9.645,0-17.537-7.892-17.537-17.537
						v-17.976V87.647c0-9.645,7.892-17.537,17.537-17.537h246.044c9.645,0,17.536,7.892,17.536,17.537V242.586z"/>
					<path style="fill:none;stroke:#302D2D;stroke-width:2;stroke-linecap:round;stroke-linejoin:round;stroke-miterlimit:10;" d="
						M448.582,256.449c0-3.63,2.938-6.576,6.576-6.576c3.631,0,6.577,2.946,6.577,6.576c0,3.639-2.946,6.577-6.577,6.577
						C451.52,263.026,448.582,260.088,448.582,256.449z"/>
					
						<rect x="330.576" y="88.524" style="fill:none;stroke:#302D2D;stroke-width:2;stroke-linecap:round;stroke-linejoin:round;stroke-miterlimit:10;" width="249.165" height="139.322"/>
					<path style="fill:none;stroke:#302D2D;stroke-width:2;stroke-linecap:round;stroke-linejoin:round;stroke-miterlimit:10;" d="
						M477.588,278.099c0,0,6.139,18.239,25.429,26.13h-47.858h-47.867c19.291-7.892,25.429-26.13,25.429-26.13"/>
					
						<line style="fill:none;stroke:#302D2D;stroke-width:2;stroke-linecap:round;stroke-linejoin:round;" x1="314.6" y1="242.586" x2="595.595" y2="242.586"/>
				</g>
			</g>
			<g>
				
					<line style="fill:none;stroke:#302D2D;stroke-width:2;stroke-linecap:round;stroke-linejoin:round;stroke-miterlimit:10;" x1="416.392" y1="194.136" x2="482.498" y2="128.03"/>
				
					<line style="fill:none;stroke:#302D2D;stroke-width:2;stroke-linecap:round;stroke-linejoin:round;stroke-miterlimit:10;" x1="410.138" y1="178.289" x2="444.551" y2="143.877"/>
				
					<line style="fill:none;stroke:#302D2D;stroke-width:2;stroke-linecap:round;stroke-linejoin:round;stroke-miterlimit:10;" x1="448.005" y1="187.17" x2="500.179" y2="134.996"/>
			</g>
			
				<line style="fill:none;stroke:#302D2D;stroke-width:2;stroke-linecap:round;stroke-linejoin:round;stroke-miterlimit:10;" x1="426.225" y1="289.577" x2="443.863" y2="289.577"/>
			
				<line style="fill:none;stroke:#302D2D;stroke-width:2;stroke-linecap:round;stroke-linejoin:round;stroke-miterlimit:10;" x1="595.717" y1="256.449" x2="556.004" y2="256.449"/>
			
				<line style="fill:none;stroke:#302D2D;stroke-width:2;stroke-linecap:round;stroke-linejoin:round;stroke-miterlimit:10;" x1="594.368" y1="267.285" x2="572.675" y2="267.285"/>
		</g>
		<g>
			<g id="XMLID_2_">
				<g>
					<path style="fill:#F5F5F5;" d="M376.368,462.381v25.33c0,5.5-4.5,10-10,10h-8.47c-5.5,0-10-4.5-10-10v-25.33h14.24H376.368z"/>
					<path style="fill:#04C4D5;" d="M376.368,450.341v12.04h-14.23v-22.04h4.23C371.868,440.341,376.368,444.841,376.368,450.341z"
						/>
					<path style="fill:#04C4D5;" d="M362.138,440.341v22.04h-14.24v-12.04c0-5.5,4.5-10,10-10H362.138z"/>
				</g>
				<g>
					<path style="fill:none;stroke:#302D2D;stroke-width:2;stroke-linecap:round;stroke-linejoin:round;stroke-miterlimit:10;" d="
						M376.368,462.381v25.33c0,5.5-4.5,10-10,10h-8.47c-5.5,0-10-4.5-10-10v-25.33v-12.04c0-5.5,4.5-10,10-10h4.24h4.23
						c5.5,0,10,4.5,10,10V462.381z"/>
					
						<polyline style="fill:none;stroke:#302D2D;stroke-width:2;stroke-linecap:round;stroke-linejoin:round;stroke-miterlimit:10;" points="
						347.898,462.381 362.138,462.381 376.368,462.381 					"/>
					
						<line style="fill:none;stroke:#302D2D;stroke-width:2;stroke-linecap:round;stroke-linejoin:round;stroke-miterlimit:10;" x1="362.138" y1="440.341" x2="362.138" y2="462.381"/>
				</g>
			</g>
			
				<line style="fill:none;stroke:#302D2D;stroke-width:2;stroke-linecap:round;stroke-linejoin:round;stroke-miterlimit:10;" x1="350.973" y1="494.9" x2="350.973" y2="481.77"/>
		</g>
		<g>
			<g>
				<g>
					<path style="fill:#F2F2F2;" d="M701.522,226.87c0,2.2-1.8,4-4,4h-61.357c-2.2,0-4-1.8-4-4l0.001-97.161c0-2.2,1.8-4,4-4h61.357
						c2.2,0,4,1.8,4,4L701.522,226.87z"/>
					<path style="fill:none;stroke:#302D2D;stroke-width:2;stroke-linecap:round;stroke-linejoin:round;stroke-miterlimit:10;" d="
						M701.522,226.87c0,2.2-1.8,4-4,4h-61.357c-2.2,0-4-1.8-4-4l0.001-97.161c0-2.2,1.8-4,4-4h61.357c2.2,0,4,1.8,4,4
						L701.522,226.87z"/>
				</g>
				<path style="fill:#F0F0F0;stroke:#302D2D;stroke-miterlimit:10;" d="M669.139,224.882c-0.001,1.155-0.938,2.092-2.093,2.093
					c-1.156-0.001-2.094-0.936-2.094-2.094c0-1.155,0.938-2.092,2.093-2.093C668.201,222.79,669.138,223.726,669.139,224.882z"/>
				
					<rect x="636.95" y="131.021" style="fill:#04C4D5;stroke:#302D2D;stroke-width:2;stroke-linecap:round;stroke-linejoin:round;stroke-miterlimit:10;" width="60.191" height="87.362"/>
			</g>
			
				<line style="fill:none;stroke:#302D2D;stroke-width:2;stroke-linecap:round;stroke-linejoin:round;stroke-miterlimit:10;" x1="652.357" y1="191.127" x2="683.47" y2="160.015"/>
			
				<line style="fill:none;stroke:#302D2D;stroke-width:2;stroke-linecap:round;stroke-linejoin:round;stroke-miterlimit:10;" x1="652.965" y1="180.701" x2="673.043" y2="160.623"/>
		</g>
		<g>
			
				<rect x="606.948" y="328.275" style="fill:#F5F5F5;stroke:#302D2D;stroke-width:2;stroke-linecap:round;stroke-linejoin:round;stroke-miterlimit:10;" width="101.333" height="124.666"/>
			<g>
				
					<polyline style="fill:none;stroke:#302D2D;stroke-width:2;stroke-linecap:round;stroke-linejoin:round;stroke-miterlimit:10;" points="
					622.917,358.123 625.335,353.934 627.753,358.123 				"/>
				
					<polyline style="fill:none;stroke:#302D2D;stroke-width:2;stroke-linecap:round;stroke-linejoin:round;stroke-miterlimit:10;" points="
					632.589,358.123 630.171,362.311 627.753,358.123 				"/>
				
					<polyline style="fill:none;stroke:#302D2D;stroke-width:2;stroke-linecap:round;stroke-linejoin:round;stroke-miterlimit:10;" points="
					632.589,358.123 635.007,353.934 637.425,358.123 				"/>
				
					<polyline style="fill:none;stroke:#302D2D;stroke-width:2;stroke-linecap:round;stroke-linejoin:round;stroke-miterlimit:10;" points="
					642.261,358.123 639.843,362.311 637.425,358.123 				"/>
				
					<polyline style="fill:none;stroke:#302D2D;stroke-width:2;stroke-linecap:round;stroke-linejoin:round;stroke-miterlimit:10;" points="
					642.261,358.123 644.679,353.934 647.097,358.123 				"/>
				
					<polyline style="fill:none;stroke:#302D2D;stroke-width:2;stroke-linecap:round;stroke-linejoin:round;stroke-miterlimit:10;" points="
					651.933,358.123 649.515,362.311 647.097,358.123 				"/>
				
					<polyline style="fill:none;stroke:#302D2D;stroke-width:2;stroke-linecap:round;stroke-linejoin:round;stroke-miterlimit:10;" points="
					651.933,358.123 654.351,353.934 656.769,358.123 				"/>
				
					<polyline style="fill:none;stroke:#302D2D;stroke-width:2;stroke-linecap:round;stroke-linejoin:round;stroke-miterlimit:10;" points="
					661.604,358.123 659.186,362.311 656.769,358.123 				"/>
			</g>
			<g>
				<path style="fill:none;stroke:#302D2D;stroke-width:2;stroke-linecap:round;stroke-linejoin:round;stroke-miterlimit:10;" d="
					M631.405,402.08c0-5.995,4.86-10.855,10.855-10.855c5.995,0,10.856,4.86,10.856,10.855c0,5.996-4.86,10.855-10.856,10.855
					C636.266,412.935,631.405,408.076,631.405,402.08z"/>
				
					<line style="fill:none;stroke:#302D2D;stroke-width:2;stroke-linecap:round;stroke-linejoin:round;stroke-miterlimit:10;" x1="653.116" y1="402.08" x2="668.51" y2="402.08"/>
			</g>
		</g>
		<g id="XMLID_33_">
			<g>
				<path style="fill:#F5F5F5;" d="M181.081,177.472v87.026h-9.778h-68.447V155.96h56.713v21.512H181.081z M172.516,215.606v-29.334
					h-61.114v29.334H172.516z"/>
				<polygon style="fill:#F5F5F5;" points="181.081,177.472 159.569,177.472 159.569,155.96 				"/>
				<rect x="111.402" y="186.272" style="fill:#04C4D5;" width="61.114" height="29.334"/>
				<path style="fill:#C94C27;" d="M171.303,264.498v9.856H92.882c-5.437,0-9.856-4.4-9.856-9.856h0.098
					c0-5.457,4.42-9.856,9.876-9.856c5.437,0,9.857,4.4,9.857,9.856H171.303z"/>
				<path style="fill:#F15A24;" d="M102.856,155.96v108.538c0-5.457-4.42-9.856-9.857-9.856c-5.456,0-9.876,4.4-9.876,9.856V155.96
					c0-5.456,4.42-9.857,9.876-9.857C98.436,146.103,102.856,150.503,102.856,155.96z"/>
			</g>
			<g>
				
					<polygon style="fill:none;stroke:#302D2D;stroke-width:2;stroke-linecap:round;stroke-linejoin:round;stroke-miterlimit:10;" points="
					159.569,155.96 102.856,155.96 102.856,264.498 171.303,264.498 181.081,264.498 181.081,177.472 159.569,177.472 				"/>
				
					<line style="fill:none;stroke:#302D2D;stroke-width:2;stroke-linecap:round;stroke-linejoin:round;stroke-miterlimit:10;" x1="159.569" y1="155.96" x2="181.081" y2="177.472"/>
				<path style="fill:none;stroke:#302D2D;stroke-width:2;stroke-linecap:round;stroke-linejoin:round;stroke-miterlimit:10;" d="
					M102.856,155.96c0-5.456-4.42-9.857-9.857-9.857c-5.456,0-9.876,4.4-9.876,9.857v108.538c0-5.457,4.42-9.856,9.876-9.856
					c5.437,0,9.857,4.4,9.857,9.856"/>
				<path style="fill:none;stroke:#302D2D;stroke-width:2;stroke-linecap:round;stroke-linejoin:round;stroke-miterlimit:10;" d="
					M83.026,264.498c0,5.456,4.419,9.856,9.856,9.856h78.421v-9.856"/>
				
					<rect x="111.402" y="186.272" style="fill:none;stroke:#302D2D;stroke-width:2;stroke-linecap:round;stroke-linejoin:round;stroke-miterlimit:10;" width="61.114" height="29.334"/>
				
					<line style="fill:none;stroke:#302D2D;stroke-width:2;stroke-linecap:round;stroke-linejoin:round;stroke-miterlimit:10;" x1="111.402" y1="226.362" x2="173.494" y2="226.362"/>
				
					<line style="fill:none;stroke:#302D2D;stroke-width:2;stroke-linecap:round;stroke-linejoin:round;stroke-miterlimit:10;" x1="111.402" y1="169.903" x2="141.969" y2="169.903"/>
				
					<line style="fill:none;stroke:#302D2D;stroke-width:2;stroke-linecap:round;stroke-linejoin:round;stroke-miterlimit:10;" x1="111.402" y1="234.185" x2="173.494" y2="234.185"/>
				
					<line style="fill:none;stroke:#302D2D;stroke-width:2;stroke-linecap:round;stroke-linejoin:round;stroke-miterlimit:10;" x1="111.402" y1="242.007" x2="173.494" y2="242.007"/>
			</g>
		</g>
		
			<line style="fill:none;stroke:#F5F5F5;stroke-width:2;stroke-linecap:round;stroke-linejoin:round;stroke-miterlimit:10;" x1="249.255" y1="612.738" x2="229.915" y2="612.738"/>
		
			<polyline style="fill:none;stroke:#F5F5F5;stroke-width:2;stroke-linecap:round;stroke-linejoin:round;stroke-miterlimit:10;" points="
			239.874,618.559 229.915,612.809 239.874,607.059 		"/>
		<g id="XMLID_5_">
			<g>
				<path style="fill:#F5F5F5;" d="M460.886,350.851c28.56,0,51.704,23.145,51.704,51.704s-23.145,51.703-51.704,51.703
					c-28.559,0-51.703-23.144-51.703-51.703S432.326,350.851,460.886,350.851z M497.853,402.555
					c0-20.41-16.559-36.968-36.968-36.968c-20.409,0-36.968,16.559-36.968,36.968c0,20.409,16.559,36.968,36.968,36.968
					C481.295,439.522,497.853,422.964,497.853,402.555z"/>
				
					<ellipse transform="matrix(0.996 -0.089 0.089 0.996 -34.0035 42.6233)" style="fill:#F15A24;" cx="460.886" cy="402.555" rx="36.968" ry="36.968"/>
			</g>
			<g>
				<path style="fill:none;stroke:#302D2D;stroke-width:2;stroke-linecap:round;stroke-linejoin:round;stroke-miterlimit:10;" d="
					M409.183,402.555c0-28.56,23.144-51.704,51.703-51.704c28.56,0,51.704,23.145,51.704,51.704s-23.145,51.703-51.704,51.703
					C432.326,454.258,409.183,431.114,409.183,402.555z"/>
				
					<ellipse transform="matrix(0.1496 -0.9887 0.9887 0.1496 -6.0887 798.0298)" style="fill:none;stroke:#302D2D;stroke-width:2;stroke-linecap:round;stroke-linejoin:round;stroke-miterlimit:10;" cx="460.886" cy="402.555" rx="36.968" ry="36.968"/>
				
					<line style="fill:none;stroke:#302D2D;stroke-width:2;stroke-linecap:round;stroke-linejoin:round;stroke-miterlimit:10;" x1="460.886" y1="370.92" x2="460.886" y2="380.785"/>
				
					<line style="fill:none;stroke:#302D2D;stroke-width:2;stroke-linecap:round;stroke-linejoin:round;stroke-miterlimit:10;" x1="460.886" y1="423.304" x2="460.886" y2="433.168"/>
				
					<line style="fill:none;stroke:#302D2D;stroke-width:2;stroke-linecap:round;stroke-linejoin:round;stroke-miterlimit:10;" x1="429.755" y1="402.037" x2="439.633" y2="402.037"/>
				
					<line style="fill:none;stroke:#302D2D;stroke-width:2;stroke-linecap:round;stroke-linejoin:round;stroke-miterlimit:10;" x1="482.139" y1="402.037" x2="492.017" y2="402.037"/>
				
					<polyline style="fill:none;stroke:#302D2D;stroke-width:2;stroke-linecap:round;stroke-linejoin:round;stroke-miterlimit:10;" points="
					460.886,391.901 460.886,402.555 477.894,402.555 				"/>
			</g>
		</g>
		<g>
			<g id="XMLID_3_">
				<g>
					<polygon style="fill:#FBB03B;" points="311.25,585.941 311.25,623.97 295.679,623.97 295.679,639.535 257.65,639.535 
						257.65,585.941 					"/>
					<polygon style="fill:#F5F5F5;" points="311.25,623.97 295.679,639.535 295.679,623.97 					"/>
				</g>
				<g>
					
						<polygon style="fill:none;stroke:#302D2D;stroke-width:2;stroke-linecap:round;stroke-linejoin:round;stroke-miterlimit:10;" points="
						311.25,623.97 311.25,585.941 257.65,585.941 257.65,639.535 295.679,639.535 295.679,623.97 					"/>
					
						<line style="fill:none;stroke:#302D2D;stroke-width:2;stroke-linecap:round;stroke-linejoin:round;stroke-miterlimit:10;" x1="295.679" y1="639.535" x2="311.25" y2="623.97"/>
				</g>
			</g>
			<path style="fill:#04C4D5;stroke:#302D2D;stroke-width:2;stroke-linecap:round;stroke-linejoin:round;stroke-miterlimit:10;" d="
				M276.783,585.941c0-4.234,3.433-7.666,7.667-7.666c4.233,0,7.666,3.432,7.666,7.666c0,4.234-3.433,7.666-7.666,7.666
				C280.216,593.607,276.783,590.176,276.783,585.941z"/>
		</g>
		<g>
			
				<polygon style="fill:#F5F5F5;stroke:#302D2D;stroke-width:2;stroke-linecap:round;stroke-linejoin:round;stroke-miterlimit:10;" points="
				198.95,642.137 192.836,639.637 187.117,644.969 182.617,639.637 173.949,648.471 163.284,636.637 149.95,648.471 
				149.95,599.471 198.95,599.471 			"/>
			<path style="fill:#04C4D5;stroke:#302D2D;stroke-width:2;stroke-linecap:round;stroke-linejoin:round;stroke-miterlimit:10;" d="
				M166.783,598.275c0-4.234,3.433-7.668,7.667-7.668c4.233,0,7.666,3.434,7.666,7.668c0,4.232-3.433,7.666-7.666,7.666
				C170.216,605.941,166.783,602.508,166.783,598.275z"/>
		</g>
		
			<polygon style="fill:#F5F5F5;stroke:#302D2D;stroke-width:2;stroke-linecap:round;stroke-linejoin:round;stroke-miterlimit:10;" points="
			176.832,705.652 127.499,705.652 127.499,693.393 168.499,693.393 176.832,699.521 		"/>
		<g>
			
				<rect x="218.165" y="688.369" style="fill:#DDC622;stroke:#302D2D;stroke-width:2;stroke-linecap:round;stroke-linejoin:round;stroke-miterlimit:10;" width="62" height="17.283"/>
			
				<rect x="231.29" y="693.393" style="fill:#AF9E38;stroke:#302D2D;stroke-width:2;stroke-linecap:round;stroke-linejoin:round;stroke-miterlimit:10;" width="5" height="6.129"/>
			
				<rect x="263.225" y="694.842" transform="matrix(0.673 -0.7396 0.7396 0.673 -428.7018 424.978)" style="fill:#AF9E38;stroke:#302D2D;stroke-width:2;stroke-linecap:round;stroke-linejoin:round;stroke-miterlimit:10;" width="6.13" height="5"/>
			
				<rect x="250.102" y="689.818" transform="matrix(0.3613 -0.9325 0.9325 0.3613 -483.8541 678.2667)" style="fill:#AF9E38;stroke:#302D2D;stroke-width:2;stroke-linecap:round;stroke-linejoin:round;stroke-miterlimit:10;" width="6.131" height="5.001"/>
			
				<line style="fill:#6DAF75;stroke:#302D2D;stroke-width:2;stroke-linecap:round;stroke-linejoin:round;stroke-miterlimit:10;" x1="218.165" y1="697.342" x2="224.665" y2="697.342"/>
			
				<line style="fill:#6DAF75;stroke:#302D2D;stroke-width:2;stroke-linecap:round;stroke-linejoin:round;stroke-miterlimit:10;" x1="275.415" y1="705.836" x2="275.415" y2="700.059"/>
		</g>
		<g>
			
				<rect x="485.563" y="532.648" style="fill:#A37231;stroke:#302D2D;stroke-width:2;stroke-linecap:round;stroke-linejoin:round;stroke-miterlimit:10;" width="31.997" height="8.332"/>
			<g>
				
					<path style="fill:#6DAF75;stroke:#302D2D;stroke-width:2;stroke-linecap:round;stroke-linejoin:round;stroke-miterlimit:10;" d="
					M501.561,481.648c-31.834,31.834-17.667,50-17.667,50h17.667h17.667C519.229,531.648,533.396,513.482,501.561,481.648z"/>
				
					<line style="fill:none;stroke:#302D2D;stroke-width:2;stroke-linecap:round;stroke-linejoin:round;stroke-miterlimit:10;" x1="501.561" y1="531.648" x2="501.561" y2="481.648"/>
				
					<line style="fill:none;stroke:#302D2D;stroke-width:2;stroke-linecap:round;stroke-linejoin:round;stroke-miterlimit:10;" x1="501.581" y1="524.918" x2="484.519" y2="507.855"/>
				
					<line style="fill:none;stroke:#302D2D;stroke-width:2;stroke-linecap:round;stroke-linejoin:round;stroke-miterlimit:10;" x1="501.581" y1="510.043" x2="489.206" y2="497.67"/>
				
					<line style="fill:none;stroke:#302D2D;stroke-width:2;stroke-linecap:round;stroke-linejoin:round;stroke-miterlimit:10;" x1="501.581" y1="516.231" x2="516.277" y2="501.533"/>
			</g>
			
				<polygon style="fill:#F15A24;stroke:#302D2D;stroke-width:2;stroke-linecap:round;stroke-linejoin:round;stroke-miterlimit:10;" points="
				517.561,581.981 485.563,581.981 473.813,540.981 529.313,540.981 			"/>
		</g>
		<g>
			<path style="fill:#F5F5F5;stroke:#302D2D;stroke-width:2;stroke-linecap:round;stroke-linejoin:round;stroke-miterlimit:10;" d="
				M86.213,353.551c0-8.085,6.607-14.68,14.68-14.68h208.999c8.072,0,14.68,6.595,14.68,14.68v109.357
				c0,8.084-6.607,14.689-14.68,14.689H100.893c-8.072,0-14.68-6.605-14.68-14.689V353.551z"/>
			
				<rect x="99.501" y="385.887" style="fill:#04C4D5;stroke:#302D2D;stroke-width:2;stroke-linecap:round;stroke-linejoin:round;stroke-miterlimit:10;" width="12.496" height="12.497"/>
			
				<rect x="116.167" y="385.887" style="fill:#04C4D5;stroke:#302D2D;stroke-width:2;stroke-linecap:round;stroke-linejoin:round;stroke-miterlimit:10;" width="12.496" height="12.497"/>
			
				<rect x="132.831" y="385.887" style="fill:#04C4D5;stroke:#302D2D;stroke-width:2;stroke-linecap:round;stroke-linejoin:round;stroke-miterlimit:10;" width="12.499" height="12.497"/>
			
				<rect x="149.497" y="385.887" style="fill:#04C4D5;stroke:#302D2D;stroke-width:2;stroke-linecap:round;stroke-linejoin:round;stroke-miterlimit:10;" width="12.499" height="12.497"/>
			
				<rect x="166.142" y="385.887" style="fill:#04C4D5;stroke:#302D2D;stroke-width:2;stroke-linecap:round;stroke-linejoin:round;stroke-miterlimit:10;" width="12.519" height="12.497"/>
			
				<rect x="182.808" y="385.887" style="fill:#04C4D5;stroke:#302D2D;stroke-width:2;stroke-linecap:round;stroke-linejoin:round;stroke-miterlimit:10;" width="12.497" height="12.497"/>
			
				<rect x="199.475" y="385.887" style="fill:#04C4D5;stroke:#302D2D;stroke-width:2;stroke-linecap:round;stroke-linejoin:round;stroke-miterlimit:10;" width="12.496" height="12.497"/>
			
				<rect x="216.141" y="385.887" style="fill:#04C4D5;stroke:#302D2D;stroke-width:2;stroke-linecap:round;stroke-linejoin:round;stroke-miterlimit:10;" width="12.496" height="12.497"/>
			
				<rect x="232.807" y="385.887" style="fill:#04C4D5;stroke:#302D2D;stroke-width:2;stroke-linecap:round;stroke-linejoin:round;stroke-miterlimit:10;" width="12.496" height="12.497"/>
			
				<rect x="249.473" y="385.887" style="fill:#04C4D5;stroke:#302D2D;stroke-width:2;stroke-linecap:round;stroke-linejoin:round;stroke-miterlimit:10;" width="12.485" height="12.497"/>
			
				<rect x="266.139" y="385.887" style="fill:#04C4D5;stroke:#302D2D;stroke-width:2;stroke-linecap:round;stroke-linejoin:round;stroke-miterlimit:10;" width="12.497" height="12.497"/>
			
				<rect x="282.804" y="385.887" style="fill:#04C4D5;stroke:#302D2D;stroke-width:2;stroke-linecap:round;stroke-linejoin:round;stroke-miterlimit:10;" width="12.498" height="12.497"/>
			
				<rect x="299.447" y="385.887" style="fill:#04C4D5;stroke:#302D2D;stroke-width:2;stroke-linecap:round;stroke-linejoin:round;stroke-miterlimit:10;" width="12.519" height="12.497"/>
			
				<rect x="99.501" y="367.143" style="fill:#04C4D5;stroke:#302D2D;stroke-width:2;stroke-linecap:round;stroke-linejoin:round;stroke-miterlimit:10;" width="12.496" height="9.713"/>
			
				<rect x="116.167" y="367.143" style="fill:#04C4D5;stroke:#302D2D;stroke-width:2;stroke-linecap:round;stroke-linejoin:round;stroke-miterlimit:10;" width="12.496" height="9.713"/>
			
				<rect x="132.831" y="367.143" style="fill:#04C4D5;stroke:#302D2D;stroke-width:2;stroke-linecap:round;stroke-linejoin:round;stroke-miterlimit:10;" width="12.499" height="9.713"/>
			
				<rect x="149.497" y="367.143" style="fill:#04C4D5;stroke:#302D2D;stroke-width:2;stroke-linecap:round;stroke-linejoin:round;stroke-miterlimit:10;" width="12.499" height="9.713"/>
			
				<rect x="166.142" y="367.143" style="fill:#04C4D5;stroke:#302D2D;stroke-width:2;stroke-linecap:round;stroke-linejoin:round;stroke-miterlimit:10;" width="12.519" height="9.713"/>
			
				<rect x="182.808" y="367.143" style="fill:#04C4D5;stroke:#302D2D;stroke-width:2;stroke-linecap:round;stroke-linejoin:round;stroke-miterlimit:10;" width="12.497" height="9.713"/>
			
				<rect x="199.475" y="367.143" style="fill:#04C4D5;stroke:#302D2D;stroke-width:2;stroke-linecap:round;stroke-linejoin:round;stroke-miterlimit:10;" width="12.496" height="9.713"/>
			
				<rect x="216.141" y="367.143" style="fill:#04C4D5;stroke:#302D2D;stroke-width:2;stroke-linecap:round;stroke-linejoin:round;stroke-miterlimit:10;" width="12.496" height="9.713"/>
			
				<rect x="232.807" y="367.143" style="fill:#04C4D5;stroke:#302D2D;stroke-width:2;stroke-linecap:round;stroke-linejoin:round;stroke-miterlimit:10;" width="12.496" height="9.713"/>
			
				<rect x="249.473" y="367.143" style="fill:#04C4D5;stroke:#302D2D;stroke-width:2;stroke-linecap:round;stroke-linejoin:round;stroke-miterlimit:10;" width="12.485" height="9.713"/>
			
				<rect x="266.139" y="367.143" style="fill:#04C4D5;stroke:#302D2D;stroke-width:2;stroke-linecap:round;stroke-linejoin:round;stroke-miterlimit:10;" width="12.497" height="9.713"/>
			
				<rect x="282.804" y="367.143" style="fill:#04C4D5;stroke:#302D2D;stroke-width:2;stroke-linecap:round;stroke-linejoin:round;stroke-miterlimit:10;" width="12.498" height="9.713"/>
			
				<rect x="299.447" y="367.143" style="fill:#04C4D5;stroke:#302D2D;stroke-width:2;stroke-linecap:round;stroke-linejoin:round;stroke-miterlimit:10;" width="12.519" height="9.713"/>
			
				<rect x="99.501" y="402.555" style="fill:#04C4D5;stroke:#302D2D;stroke-width:2;stroke-linecap:round;stroke-linejoin:round;stroke-miterlimit:10;" width="16.666" height="12.496"/>
			
				<rect x="137.695" y="402.555" style="fill:#04C4D5;stroke:#302D2D;stroke-width:2;stroke-linecap:round;stroke-linejoin:round;stroke-miterlimit:10;" width="12.485" height="12.496"/>
			
				<rect x="121.029" y="402.555" style="fill:#04C4D5;stroke:#302D2D;stroke-width:2;stroke-linecap:round;stroke-linejoin:round;stroke-miterlimit:10;" width="12.485" height="12.496"/>
			
				<rect x="154.361" y="402.555" style="fill:#04C4D5;stroke:#302D2D;stroke-width:2;stroke-linecap:round;stroke-linejoin:round;stroke-miterlimit:10;" width="12.496" height="12.496"/>
			
				<rect x="171.015" y="402.555" style="fill:#04C4D5;stroke:#302D2D;stroke-width:2;stroke-linecap:round;stroke-linejoin:round;stroke-miterlimit:10;" width="12.498" height="12.496"/>
			
				<rect x="187.67" y="402.555" style="fill:#04C4D5;stroke:#302D2D;stroke-width:2;stroke-linecap:round;stroke-linejoin:round;stroke-miterlimit:10;" width="12.507" height="12.496"/>
			
				<rect x="204.336" y="402.555" style="fill:#04C4D5;stroke:#302D2D;stroke-width:2;stroke-linecap:round;stroke-linejoin:round;stroke-miterlimit:10;" width="12.508" height="12.496"/>
			
				<rect x="220.991" y="402.555" style="fill:#04C4D5;stroke:#302D2D;stroke-width:2;stroke-linecap:round;stroke-linejoin:round;stroke-miterlimit:10;" width="12.508" height="12.496"/>
			
				<rect x="237.657" y="402.555" style="fill:#04C4D5;stroke:#302D2D;stroke-width:2;stroke-linecap:round;stroke-linejoin:round;stroke-miterlimit:10;" width="12.497" height="12.496"/>
			
				<rect x="254.323" y="402.555" style="fill:#04C4D5;stroke:#302D2D;stroke-width:2;stroke-linecap:round;stroke-linejoin:round;stroke-miterlimit:10;" width="12.497" height="12.496"/>
			
				<rect x="270.99" y="402.555" style="fill:#04C4D5;stroke:#302D2D;stroke-width:2;stroke-linecap:round;stroke-linejoin:round;stroke-miterlimit:10;" width="12.496" height="12.496"/>
			
				<rect x="99.501" y="419.207" style="fill:#04C4D5;stroke:#302D2D;stroke-width:2;stroke-linecap:round;stroke-linejoin:round;stroke-miterlimit:10;" width="22.914" height="12.498"/>
			
				<rect x="128.663" y="419.207" style="fill:#04C4D5;stroke:#302D2D;stroke-width:2;stroke-linecap:round;stroke-linejoin:round;stroke-miterlimit:10;" width="12.486" height="12.498"/>
			
				<rect x="145.33" y="419.207" style="fill:#04C4D5;stroke:#302D2D;stroke-width:2;stroke-linecap:round;stroke-linejoin:round;stroke-miterlimit:10;" width="12.496" height="12.498"/>
			
				<rect x="161.996" y="419.207" style="fill:#04C4D5;stroke:#302D2D;stroke-width:2;stroke-linecap:round;stroke-linejoin:round;stroke-miterlimit:10;" width="12.496" height="12.498"/>
			
				<rect x="178.66" y="419.207" style="fill:#04C4D5;stroke:#302D2D;stroke-width:2;stroke-linecap:round;stroke-linejoin:round;stroke-miterlimit:10;" width="12.498" height="12.498"/>
			
				<rect x="195.305" y="419.207" style="fill:#04C4D5;stroke:#302D2D;stroke-width:2;stroke-linecap:round;stroke-linejoin:round;stroke-miterlimit:10;" width="12.507" height="12.498"/>
			
				<rect x="211.971" y="419.207" style="fill:#04C4D5;stroke:#302D2D;stroke-width:2;stroke-linecap:round;stroke-linejoin:round;stroke-miterlimit:10;" width="12.507" height="12.498"/>
			
				<rect x="228.637" y="419.207" style="fill:#04C4D5;stroke:#302D2D;stroke-width:2;stroke-linecap:round;stroke-linejoin:round;stroke-miterlimit:10;" width="12.496" height="12.498"/>
			
				<rect x="245.303" y="419.207" style="fill:#04C4D5;stroke:#302D2D;stroke-width:2;stroke-linecap:round;stroke-linejoin:round;stroke-miterlimit:10;" width="12.497" height="12.498"/>
			
				<rect x="261.958" y="419.207" style="fill:#04C4D5;stroke:#302D2D;stroke-width:2;stroke-linecap:round;stroke-linejoin:round;stroke-miterlimit:10;" width="12.497" height="12.498"/>
			
				<polygon style="fill:#04C4D5;stroke:#302D2D;stroke-width:2;stroke-linecap:round;stroke-linejoin:round;stroke-miterlimit:10;" points="
				299.447,431.705 280.166,431.705 280.166,419.207 289.053,419.207 289.053,402.555 299.447,402.555 311.967,402.555 
				311.967,419.207 311.967,431.705 			"/>
			
				<rect x="99.501" y="435.875" style="fill:#04C4D5;stroke:#302D2D;stroke-width:2;stroke-linecap:round;stroke-linejoin:round;stroke-miterlimit:10;" width="16.666" height="12.496"/>
			
				<rect x="121.118" y="435.875" style="fill:#04C4D5;stroke:#302D2D;stroke-width:2;stroke-linecap:round;stroke-linejoin:round;stroke-miterlimit:10;" width="12.486" height="12.496"/>
			
				<rect x="137.785" y="435.875" style="fill:#04C4D5;stroke:#302D2D;stroke-width:2;stroke-linecap:round;stroke-linejoin:round;stroke-miterlimit:10;" width="12.485" height="12.496"/>
			
				<rect x="154.438" y="435.875" style="fill:#04C4D5;stroke:#302D2D;stroke-width:2;stroke-linecap:round;stroke-linejoin:round;stroke-miterlimit:10;" width="12.499" height="12.496"/>
			
				<rect x="171.104" y="435.875" style="fill:#04C4D5;stroke:#302D2D;stroke-width:2;stroke-linecap:round;stroke-linejoin:round;stroke-miterlimit:10;" width="12.498" height="12.496"/>
			
				<rect x="187.76" y="435.875" style="fill:#04C4D5;stroke:#302D2D;stroke-width:2;stroke-linecap:round;stroke-linejoin:round;stroke-miterlimit:10;" width="12.507" height="12.496"/>
			
				<rect x="204.415" y="435.875" style="fill:#04C4D5;stroke:#302D2D;stroke-width:2;stroke-linecap:round;stroke-linejoin:round;stroke-miterlimit:10;" width="12.518" height="12.496"/>
			
				<rect x="221.081" y="435.875" style="fill:#04C4D5;stroke:#302D2D;stroke-width:2;stroke-linecap:round;stroke-linejoin:round;stroke-miterlimit:10;" width="12.496" height="12.496"/>
			
				<rect x="237.747" y="435.875" style="fill:#04C4D5;stroke:#302D2D;stroke-width:2;stroke-linecap:round;stroke-linejoin:round;stroke-miterlimit:10;" width="12.496" height="12.496"/>
			
				<rect x="254.413" y="435.875" style="fill:#04C4D5;stroke:#302D2D;stroke-width:2;stroke-linecap:round;stroke-linejoin:round;stroke-miterlimit:10;" width="12.496" height="12.496"/>
			
				<rect x="272.387" y="435.875" style="fill:#04C4D5;stroke:#302D2D;stroke-width:2;stroke-linecap:round;stroke-linejoin:round;stroke-miterlimit:10;" width="39.58" height="12.496"/>
			
				<rect x="99.501" y="452.541" style="fill:#04C4D5;stroke:#302D2D;stroke-width:2;stroke-linecap:round;stroke-linejoin:round;stroke-miterlimit:10;" width="12.496" height="12.496"/>
			
				<rect x="116.167" y="452.541" style="fill:#04C4D5;stroke:#302D2D;stroke-width:2;stroke-linecap:round;stroke-linejoin:round;stroke-miterlimit:10;" width="12.496" height="12.496"/>
			
				<rect x="132.831" y="452.541" style="fill:#04C4D5;stroke:#302D2D;stroke-width:2;stroke-linecap:round;stroke-linejoin:round;stroke-miterlimit:10;" width="12.499" height="12.496"/>
			
				<rect x="149.497" y="452.541" style="fill:#04C4D5;stroke:#302D2D;stroke-width:2;stroke-linecap:round;stroke-linejoin:round;stroke-miterlimit:10;" width="95.806" height="12.496"/>
			
				<rect x="249.473" y="452.541" style="fill:#04C4D5;stroke:#302D2D;stroke-width:2;stroke-linecap:round;stroke-linejoin:round;stroke-miterlimit:10;" width="12.485" height="12.496"/>
			
				<rect x="266.139" y="452.541" style="fill:#04C4D5;stroke:#302D2D;stroke-width:2;stroke-linecap:round;stroke-linejoin:round;stroke-miterlimit:10;" width="12.497" height="12.496"/>
			
				<rect x="282.804" y="452.541" style="fill:#04C4D5;stroke:#302D2D;stroke-width:2;stroke-linecap:round;stroke-linejoin:round;stroke-miterlimit:10;" width="12.498" height="12.496"/>
			
				<rect x="299.447" y="452.541" style="fill:#04C4D5;stroke:#302D2D;stroke-width:2;stroke-linecap:round;stroke-linejoin:round;stroke-miterlimit:10;" width="12.519" height="12.496"/>
			
				<rect x="109.399" y="335.858" style="fill:#697271;stroke:#302D2D;stroke-width:2;stroke-linecap:round;stroke-linejoin:round;stroke-miterlimit:10;" width="190.07" height="17.104"/>
			
				<rect x="281.447" y="341.411" style="fill:#6DAF75;stroke:#302D2D;stroke-width:2;stroke-linecap:round;stroke-linejoin:round;stroke-miterlimit:10;" width="8.318" height="11.551"/>
			
				<rect x="268.227" y="341.411" style="fill:#6DAF75;stroke:#302D2D;stroke-width:2;stroke-linecap:round;stroke-linejoin:round;stroke-miterlimit:10;" width="8.317" height="11.551"/>
			
				<rect x="255.007" y="341.411" style="fill:#6DAF75;stroke:#302D2D;stroke-width:2;stroke-linecap:round;stroke-linejoin:round;stroke-miterlimit:10;" width="8.318" height="11.551"/>
			
				<rect x="241.787" y="341.411" style="fill:#6DAF75;stroke:#302D2D;stroke-width:2;stroke-linecap:round;stroke-linejoin:round;stroke-miterlimit:10;" width="8.318" height="11.551"/>
		</g>
		<g id="XMLID_30_">
			<g>
				<polygon style="fill:#697271;" points="716.975,368.43 708.736,365.439 705.3,360.829 709.366,356.763 713.983,360.192 				"/>
				<polygon style="fill:#A391C3;" points="675.58,322.086 692.197,338.703 691.752,339.149 687.685,343.215 687.247,343.653 
					670.631,327.036 671.069,326.598 675.135,322.532 				"/>
				
					<rect x="703.044" y="355.381" transform="matrix(0.707 -0.7072 0.7072 0.707 -45.9045 603.9674)" style="fill:#645B75;" width="5.75" height="4"/>
				
					<rect x="694.237" y="338.12" transform="matrix(0.7071 -0.7071 0.7071 0.7071 -42.3053 595.012)" style="fill:#A391C3;" width="5.75" height="20.91"/>
				<polygon style="fill:#697271;" points="672.42,319.816 675.135,322.532 671.069,326.598 670.185,325.714 668.353,323.882 				
					"/>
			</g>
			<g>
				
					<polyline style="fill:none;stroke:#302D2D;stroke-width:2;stroke-linecap:round;stroke-linejoin:round;stroke-miterlimit:10;" points="
					687.685,343.215 687.247,343.653 670.631,327.036 671.069,326.598 				"/>
				
					<polyline style="fill:none;stroke:#302D2D;stroke-width:2;stroke-linecap:round;stroke-linejoin:round;stroke-miterlimit:10;" points="
					675.135,322.532 675.58,322.086 692.197,338.703 691.752,339.149 				"/>
				
					<polyline style="fill:none;stroke:#302D2D;stroke-width:2;stroke-linecap:round;stroke-linejoin:round;stroke-miterlimit:10;" points="
					705.3,360.829 702.472,358 687.685,343.215 691.752,339.149 706.537,353.935 709.366,356.763 				"/>
				
					<polygon style="fill:none;stroke:#302D2D;stroke-width:2;stroke-linecap:round;stroke-linejoin:round;stroke-miterlimit:10;" points="
					675.135,322.532 671.069,326.598 670.185,325.714 668.353,323.882 672.42,319.816 				"/>
				
					<polyline style="fill:none;stroke:#302D2D;stroke-width:2;stroke-linecap:round;stroke-linejoin:round;stroke-miterlimit:10;" points="
					670.185,325.714 669.329,330.331 682.475,343.476 				"/>
				
					<polygon style="fill:none;stroke:#302D2D;stroke-width:2;stroke-linecap:round;stroke-linejoin:round;stroke-miterlimit:10;" points="
					705.3,360.829 708.736,365.439 716.975,368.43 713.983,360.192 709.366,356.763 				"/>
				
					<line style="fill:none;stroke:#302D2D;stroke-width:2;stroke-linecap:round;stroke-linejoin:round;stroke-miterlimit:10;" x1="716.975" y1="368.43" x2="711.756" y2="363.211"/>
				
					<line style="fill:none;stroke:#302D2D;stroke-width:2;stroke-linecap:round;stroke-linejoin:round;stroke-miterlimit:10;" x1="702.472" y1="358" x2="706.537" y2="353.935"/>
			</g>
		</g>
		<g>
			<path style="fill:none;stroke:#302D2D;stroke-width:2;stroke-linecap:round;stroke-linejoin:round;stroke-miterlimit:10;" d="
				M601.856,590.723c0,4.234,3.433,7.668,7.667,7.668c4.234,0,7.667,3.434,7.667,7.668l-0.024,3.508
				c0,4.234,3.433,7.668,7.667,7.668c4.234,0,7.667-3.434,7.667-7.668v-18.219c0-4.234,3.433-7.666,7.667-7.666l25.184-0.125
				c4.234,0,7.667-3.434,7.667-7.668v-3.625"/>
			<g id="XMLID_31_">
				<g>
					<polygon style="fill:#04C4D5;" points="686.029,549.784 686.029,568.656 683.987,568.656 679.59,568.656 679.59,549.784 					
						"/>
					<polygon style="fill:#4C4949;" points="679.59,568.656 679.59,572.265 666.396,572.265 666.396,546.177 668.797,546.177 
						677.339,546.177 679.59,546.177 679.59,549.784 					"/>
					<path style="fill:#F15A24;" d="M677.368,545.088c0,0.344-0.029,0.716-0.029,1.089h-8.542c0.015-0.373,0.06-0.745,0.06-1.089
						c0-17.307-14.027-31.335-31.335-31.335s-31.32,14.028-31.32,31.335c0,0.344,0.03,0.716,0.045,1.089h-8.542
						c0-0.373-0.015-0.745-0.015-1.089c0-22.018,17.829-39.847,39.832-39.847C659.524,505.241,677.368,523.07,677.368,545.088z"/>
					<polygon style="fill:#00D9CE;" points="667.217,593.447 667.217,597.354 650.073,597.354 650.073,589.526 667.217,589.526 
											"/>
					<polygon style="fill:#4C4949;" points="608.452,546.177 608.452,572.265 595.26,572.265 595.26,568.656 595.26,549.784 
						595.26,546.177 597.704,546.177 606.246,546.177 					"/>
					<rect x="588.819" y="549.784" style="fill:#04C4D5;" width="6.44" height="18.872"/>
				</g>
				<g>
					
						<polyline style="fill:none;stroke:#302D2D;stroke-width:2;stroke-linecap:round;stroke-linejoin:round;stroke-miterlimit:10;" points="
						595.26,549.784 595.26,546.177 597.704,546.177 					"/>
					
						<polyline style="fill:none;stroke:#302D2D;stroke-width:2;stroke-linecap:round;stroke-linejoin:round;stroke-miterlimit:10;" points="
						606.246,546.177 608.452,546.177 608.452,572.265 595.26,572.265 595.26,568.656 					"/>
					
						<polyline style="fill:none;stroke:#302D2D;stroke-width:2;stroke-linecap:round;stroke-linejoin:round;stroke-miterlimit:10;" points="
						677.339,546.177 679.59,546.177 679.59,549.784 					"/>
					
						<polyline style="fill:none;stroke:#302D2D;stroke-width:2;stroke-linecap:round;stroke-linejoin:round;stroke-miterlimit:10;" points="
						679.59,568.656 679.59,572.265 666.396,572.265 666.396,546.177 668.797,546.177 					"/>
					
						<polygon style="fill:none;stroke:#302D2D;stroke-width:2;stroke-linecap:round;stroke-linejoin:round;stroke-miterlimit:10;" points="
						679.59,549.784 686.029,549.784 686.029,568.656 683.987,568.656 679.59,568.656 					"/>
					
						<rect x="588.819" y="549.784" style="fill:none;stroke:#302D2D;stroke-width:2;stroke-linecap:round;stroke-linejoin:round;stroke-miterlimit:10;" width="6.44" height="18.872"/>
					<path style="fill:none;stroke:#302D2D;stroke-width:2;stroke-linecap:round;stroke-linejoin:round;stroke-miterlimit:10;" d="
						M683.987,568.656c0,0,2.042,24.791-16.771,24.791"/>
					
						<polygon style="fill:none;stroke:#302D2D;stroke-width:2;stroke-linecap:round;stroke-linejoin:round;stroke-miterlimit:10;" points="
						667.217,597.354 650.073,597.354 650.073,589.526 667.217,589.526 667.217,593.447 					"/>
					<path style="fill:none;stroke:#302D2D;stroke-width:2;stroke-linecap:round;stroke-linejoin:round;stroke-miterlimit:10;" d="
						M606.246,546.177c-0.015-0.373-0.045-0.745-0.045-1.089c0-17.307,14.013-31.335,31.32-31.335s31.335,14.028,31.335,31.335
						c0,0.344-0.045,0.716-0.06,1.089h8.542c0-0.373,0.029-0.745,0.029-1.089c0-22.018-17.844-39.847-39.847-39.847
						c-22.003,0-39.832,17.829-39.832,39.847c0,0.344,0.015,0.716,0.015,1.089H606.246z"/>
				</g>
			</g>
			
				<line style="fill:none;stroke:#302D2D;stroke-width:2;stroke-linecap:round;stroke-linejoin:round;stroke-miterlimit:10;" x1="601.856" y1="572.264" x2="601.856" y2="590.723"/>
			
				<polyline style="fill:none;stroke:#302D2D;stroke-width:2;stroke-linecap:round;stroke-linejoin:round;stroke-miterlimit:10;" points="
				624.833,617.234 624.833,627.641 624.833,671.773 			"/>
			
				<rect x="621.083" y="671.773" style="fill:#F15A24;stroke:#302D2D;stroke-width:2;stroke-linecap:round;stroke-linejoin:round;stroke-miterlimit:10;" width="7.5" height="20.293"/>
			
				<rect x="621.083" y="692.066" style="fill:#697271;stroke:#302D2D;stroke-width:2;stroke-linecap:round;stroke-linejoin:round;stroke-miterlimit:10;" width="7.5" height="3.75"/>
			
				<rect x="621.083" y="699.566" style="fill:#697271;stroke:#302D2D;stroke-width:2;stroke-linecap:round;stroke-linejoin:round;stroke-miterlimit:10;" width="7.5" height="3.75"/>
			
				<rect x="622.73" y="703.316" style="fill:#697271;stroke:#302D2D;stroke-width:2;stroke-linecap:round;stroke-linejoin:round;stroke-miterlimit:10;" width="4.205" height="16.916"/>
			
				<rect x="621.083" y="695.816" style="fill:#F15A24;stroke:#302D2D;stroke-width:2;stroke-linecap:round;stroke-linejoin:round;stroke-miterlimit:10;" width="7.5" height="3.75"/>
			
				<line style="fill:none;stroke:#302D2D;stroke-width:2;stroke-linecap:round;stroke-linejoin:round;stroke-miterlimit:10;" x1="622.73" y1="711.775" x2="626.935" y2="711.775"/>
		</g>
	</g>
</g>
</svg>
